<mxfile host="app.diagrams.net" agent="Mozilla/5.0 (Windows NT 10.0; Win64; x64) AppleWebKit/537.36 (KHTML, like Gecko) Chrome/135.0.0.0 Safari/537.36" version="26.2.14">
  <diagram name="PÃ¡gina-1" id="xztaHVKJhpMYaXHCQxrF">
    <mxGraphModel dx="2037" dy="1110" grid="0" gridSize="10" guides="1" tooltips="1" connect="1" arrows="1" fold="1" page="0" pageScale="1" pageWidth="827" pageHeight="1169" math="0" shadow="0">
      <root>
        <mxCell id="0" />
        <mxCell id="1" parent="0" />
        <mxCell id="uJvPttrXsnRzV3NXJ3J6-1" value="Tipo_Proyecto" style="whiteSpace=wrap;html=1;align=center;fillColor=#dae8fc;strokeColor=#6c8ebf;" parent="1" vertex="1">
          <mxGeometry x="403" y="183" width="100" height="40" as="geometry" />
        </mxCell>
        <mxCell id="uJvPttrXsnRzV3NXJ3J6-166" style="edgeStyle=orthogonalEdgeStyle;curved=0;rounded=0;orthogonalLoop=1;jettySize=auto;html=1;exitX=1;exitY=0.75;exitDx=0;exitDy=0;entryX=0;entryY=0.5;entryDx=0;entryDy=0;endArrow=none;startFill=0;" parent="1" source="uJvPttrXsnRzV3NXJ3J6-2" target="uJvPttrXsnRzV3NXJ3J6-165" edge="1">
          <mxGeometry relative="1" as="geometry">
            <Array as="points">
              <mxPoint x="552" y="420" />
            </Array>
          </mxGeometry>
        </mxCell>
        <mxCell id="uJvPttrXsnRzV3NXJ3J6-2" value="Proyecto" style="whiteSpace=wrap;html=1;align=center;fillColor=#dae8fc;strokeColor=#6c8ebf;" parent="1" vertex="1">
          <mxGeometry x="396.5" y="390" width="155.5" height="56" as="geometry" />
        </mxCell>
        <mxCell id="uJvPttrXsnRzV3NXJ3J6-3" value="Rol" style="whiteSpace=wrap;html=1;align=center;fillColor=#dae8fc;strokeColor=#6c8ebf;" parent="1" vertex="1">
          <mxGeometry x="197" y="820" width="100" height="40" as="geometry" />
        </mxCell>
        <mxCell id="uJvPttrXsnRzV3NXJ3J6-4" value="Usuario" style="whiteSpace=wrap;html=1;align=center;fillColor=#dae8fc;strokeColor=#6c8ebf;" parent="1" vertex="1">
          <mxGeometry x="501" y="818" width="100" height="40" as="geometry" />
        </mxCell>
        <mxCell id="uJvPttrXsnRzV3NXJ3J6-5" value="Permiso" style="whiteSpace=wrap;html=1;align=center;fillColor=#dae8fc;strokeColor=#6c8ebf;" parent="1" vertex="1">
          <mxGeometry x="194.5" y="1013" width="100" height="40" as="geometry" />
        </mxCell>
        <mxCell id="uJvPttrXsnRzV3NXJ3J6-6" value="Programa_academico" style="whiteSpace=wrap;html=1;align=center;fillColor=#dae8fc;strokeColor=#6c8ebf;" parent="1" vertex="1">
          <mxGeometry x="73" y="48" width="134" height="40" as="geometry" />
        </mxCell>
        <mxCell id="uJvPttrXsnRzV3NXJ3J6-7" value="Estudiante" style="whiteSpace=wrap;html=1;align=center;fillColor=#dae8fc;strokeColor=#6c8ebf;" parent="1" vertex="1">
          <mxGeometry x="433" y="649" width="100" height="40" as="geometry" />
        </mxCell>
        <mxCell id="uJvPttrXsnRzV3NXJ3J6-8" value="Docente" style="whiteSpace=wrap;html=1;align=center;fillColor=#dae8fc;strokeColor=#6c8ebf;" parent="1" vertex="1">
          <mxGeometry x="573" y="650" width="100" height="40" as="geometry" />
        </mxCell>
        <mxCell id="uJvPttrXsnRzV3NXJ3J6-188" style="edgeStyle=orthogonalEdgeStyle;curved=0;rounded=0;orthogonalLoop=1;jettySize=auto;html=1;exitX=0.5;exitY=1;exitDx=0;exitDy=0;entryX=0;entryY=0.5;entryDx=0;entryDy=0;endArrow=none;startFill=0;" parent="1" source="uJvPttrXsnRzV3NXJ3J6-9" target="uJvPttrXsnRzV3NXJ3J6-186" edge="1">
          <mxGeometry relative="1" as="geometry" />
        </mxCell>
        <mxCell id="uJvPttrXsnRzV3NXJ3J6-9" value="Asignatura" style="whiteSpace=wrap;html=1;align=center;fillColor=#dae8fc;strokeColor=#6c8ebf;" parent="1" vertex="1">
          <mxGeometry x="87" y="237" width="100" height="40" as="geometry" />
        </mxCell>
        <mxCell id="uJvPttrXsnRzV3NXJ3J6-10" value="Invitado" style="whiteSpace=wrap;html=1;align=center;fillColor=#dae8fc;strokeColor=#6c8ebf;" parent="1" vertex="1">
          <mxGeometry x="499.5" y="981" width="100" height="37" as="geometry" />
        </mxCell>
        <mxCell id="uJvPttrXsnRzV3NXJ3J6-11" value="Entregable" style="whiteSpace=wrap;html=1;align=center;fillColor=#dae8fc;strokeColor=#6c8ebf;" parent="1" vertex="1">
          <mxGeometry x="282.5" y="566" width="100" height="40" as="geometry" />
        </mxCell>
        <mxCell id="uJvPttrXsnRzV3NXJ3J6-12" value="Tipo_Entregable" style="whiteSpace=wrap;html=1;align=center;fillColor=#dae8fc;strokeColor=#6c8ebf;" parent="1" vertex="1">
          <mxGeometry x="279" y="730" width="100" height="40" as="geometry" />
        </mxCell>
        <mxCell id="uJvPttrXsnRzV3NXJ3J6-13" value="Evaluacion" style="whiteSpace=wrap;html=1;align=center;fillColor=#dae8fc;strokeColor=#6c8ebf;" parent="1" vertex="1">
          <mxGeometry x="61" y="397" width="100" height="40" as="geometry" />
        </mxCell>
        <mxCell id="uJvPttrXsnRzV3NXJ3J6-14" value="REP" style="whiteSpace=wrap;html=1;align=center;fillColor=#dae8fc;strokeColor=#6c8ebf;" parent="1" vertex="1">
          <mxGeometry x="757" y="400" width="100" height="40" as="geometry" />
        </mxCell>
        <mxCell id="uJvPttrXsnRzV3NXJ3J6-155" style="edgeStyle=orthogonalEdgeStyle;curved=0;rounded=0;orthogonalLoop=1;jettySize=auto;html=1;exitX=0.5;exitY=1;exitDx=0;exitDy=0;endArrow=none;startFill=0;" parent="1" source="uJvPttrXsnRzV3NXJ3J6-154" edge="1">
          <mxGeometry relative="1" as="geometry">
            <Array as="points">
              <mxPoint x="447" y="365" />
              <mxPoint x="447" y="365" />
              <mxPoint x="447" y="390" />
            </Array>
            <mxPoint x="447" y="390" as="targetPoint" />
          </mxGeometry>
        </mxCell>
        <mxCell id="uJvPttrXsnRzV3NXJ3J6-154" value="Pertenece_a" style="shape=rhombus;perimeter=rhombusPerimeter;whiteSpace=wrap;html=1;align=center;fillColor=#f5f5f5;strokeColor=#666666;fontColor=#333333;" parent="1" vertex="1">
          <mxGeometry x="386.5" y="279" width="120" height="60" as="geometry" />
        </mxCell>
        <mxCell id="uJvPttrXsnRzV3NXJ3J6-156" style="edgeStyle=orthogonalEdgeStyle;curved=1;rounded=0;orthogonalLoop=1;jettySize=auto;html=1;exitX=0.5;exitY=0;exitDx=0;exitDy=0;entryX=0.436;entryY=0.975;entryDx=0;entryDy=0;entryPerimeter=0;endArrow=none;startFill=0;" parent="1" source="uJvPttrXsnRzV3NXJ3J6-154" target="uJvPttrXsnRzV3NXJ3J6-1" edge="1">
          <mxGeometry relative="1" as="geometry" />
        </mxCell>
        <mxCell id="uJvPttrXsnRzV3NXJ3J6-161" value="N" style="text;html=1;align=center;verticalAlign=middle;resizable=0;points=[];autosize=1;strokeColor=none;fillColor=none;" parent="1" vertex="1">
          <mxGeometry x="439.5" y="371" width="27" height="26" as="geometry" />
        </mxCell>
        <mxCell id="uJvPttrXsnRzV3NXJ3J6-162" value="1" style="text;html=1;align=center;verticalAlign=middle;resizable=0;points=[];autosize=1;strokeColor=none;fillColor=none;" parent="1" vertex="1">
          <mxGeometry x="445.5" y="223" width="25" height="26" as="geometry" />
        </mxCell>
        <mxCell id="uJvPttrXsnRzV3NXJ3J6-167" style="edgeStyle=orthogonalEdgeStyle;curved=1;rounded=0;orthogonalLoop=1;jettySize=auto;html=1;exitX=1;exitY=0.5;exitDx=0;exitDy=0;entryX=0;entryY=0.5;entryDx=0;entryDy=0;endArrow=none;startFill=0;" parent="1" source="uJvPttrXsnRzV3NXJ3J6-165" target="uJvPttrXsnRzV3NXJ3J6-14" edge="1">
          <mxGeometry relative="1" as="geometry">
            <mxPoint x="846.9999999999998" y="416" as="sourcePoint" />
          </mxGeometry>
        </mxCell>
        <mxCell id="uJvPttrXsnRzV3NXJ3J6-165" value="Tiene_REP" style="shape=rhombus;perimeter=rhombusPerimeter;whiteSpace=wrap;html=1;align=center;fillColor=#f5f5f5;strokeColor=#666666;fontColor=#333333;" parent="1" vertex="1">
          <mxGeometry x="599" y="390" width="120" height="60" as="geometry" />
        </mxCell>
        <mxCell id="uJvPttrXsnRzV3NXJ3J6-168" value="1" style="text;html=1;align=center;verticalAlign=middle;resizable=0;points=[];autosize=1;strokeColor=none;fillColor=none;" parent="1" vertex="1">
          <mxGeometry x="551" y="421" width="25" height="26" as="geometry" />
        </mxCell>
        <mxCell id="uJvPttrXsnRzV3NXJ3J6-169" value="N" style="text;html=1;align=center;verticalAlign=middle;resizable=0;points=[];autosize=1;strokeColor=none;fillColor=none;" parent="1" vertex="1">
          <mxGeometry x="730" y="420" width="27" height="26" as="geometry" />
        </mxCell>
        <mxCell id="uJvPttrXsnRzV3NXJ3J6-171" style="edgeStyle=orthogonalEdgeStyle;curved=0;rounded=0;orthogonalLoop=1;jettySize=auto;html=1;exitX=1;exitY=0.5;exitDx=0;exitDy=0;entryX=0.887;entryY=0.159;entryDx=0;entryDy=0;endArrow=none;startFill=0;entryPerimeter=0;" parent="1" source="uJvPttrXsnRzV3NXJ3J6-170" target="uJvPttrXsnRzV3NXJ3J6-174" edge="1">
          <mxGeometry relative="1" as="geometry">
            <Array as="points">
              <mxPoint x="396" y="417" />
            </Array>
          </mxGeometry>
        </mxCell>
        <mxCell id="uJvPttrXsnRzV3NXJ3J6-172" style="edgeStyle=orthogonalEdgeStyle;curved=1;rounded=0;orthogonalLoop=1;jettySize=auto;html=1;exitX=0;exitY=0.5;exitDx=0;exitDy=0;entryX=1;entryY=0.5;entryDx=0;entryDy=0;endArrow=none;startFill=0;" parent="1" source="uJvPttrXsnRzV3NXJ3J6-170" target="uJvPttrXsnRzV3NXJ3J6-13" edge="1">
          <mxGeometry relative="1" as="geometry" />
        </mxCell>
        <mxCell id="uJvPttrXsnRzV3NXJ3J6-170" value="Tiene_evaluacion" style="shape=rhombus;perimeter=rhombusPerimeter;whiteSpace=wrap;html=1;align=center;fillColor=#f5f5f5;strokeColor=#666666;fontColor=#333333;" parent="1" vertex="1">
          <mxGeometry x="189" y="387" width="120" height="60" as="geometry" />
        </mxCell>
        <mxCell id="uJvPttrXsnRzV3NXJ3J6-173" value="1" style="text;html=1;align=center;verticalAlign=middle;resizable=0;points=[];autosize=1;strokeColor=none;fillColor=none;" parent="1" vertex="1">
          <mxGeometry x="155" y="416" width="25" height="26" as="geometry" />
        </mxCell>
        <mxCell id="uJvPttrXsnRzV3NXJ3J6-174" value="1" style="text;html=1;align=center;verticalAlign=middle;resizable=0;points=[];autosize=1;strokeColor=none;fillColor=none;" parent="1" vertex="1">
          <mxGeometry x="374" y="412" width="25" height="26" as="geometry" />
        </mxCell>
        <mxCell id="uJvPttrXsnRzV3NXJ3J6-177" style="edgeStyle=orthogonalEdgeStyle;curved=0;rounded=0;orthogonalLoop=1;jettySize=auto;html=1;exitX=0.5;exitY=0;exitDx=0;exitDy=0;entryX=0;entryY=1;entryDx=0;entryDy=0;endArrow=none;startFill=0;" parent="1" source="uJvPttrXsnRzV3NXJ3J6-175" target="uJvPttrXsnRzV3NXJ3J6-2" edge="1">
          <mxGeometry relative="1" as="geometry">
            <Array as="points">
              <mxPoint x="329" y="492" />
              <mxPoint x="328" y="446" />
            </Array>
            <mxPoint x="356.75" y="447" as="targetPoint" />
          </mxGeometry>
        </mxCell>
        <mxCell id="uJvPttrXsnRzV3NXJ3J6-175" value="Tiene_entregable" style="shape=rhombus;perimeter=rhombusPerimeter;whiteSpace=wrap;html=1;align=center;fillColor=#f5f5f5;strokeColor=#666666;fontColor=#333333;" parent="1" vertex="1">
          <mxGeometry x="269" y="478" width="120" height="60" as="geometry" />
        </mxCell>
        <mxCell id="uJvPttrXsnRzV3NXJ3J6-178" style="edgeStyle=orthogonalEdgeStyle;curved=1;rounded=0;orthogonalLoop=1;jettySize=auto;html=1;exitX=0.5;exitY=1;exitDx=0;exitDy=0;entryX=0.465;entryY=0.008;entryDx=0;entryDy=0;entryPerimeter=0;endArrow=none;startFill=0;" parent="1" source="uJvPttrXsnRzV3NXJ3J6-175" target="uJvPttrXsnRzV3NXJ3J6-11" edge="1">
          <mxGeometry relative="1" as="geometry" />
        </mxCell>
        <mxCell id="uJvPttrXsnRzV3NXJ3J6-179" value="1" style="text;html=1;align=center;verticalAlign=middle;resizable=0;points=[];autosize=1;strokeColor=none;fillColor=none;" parent="1" vertex="1">
          <mxGeometry x="308" y="446" width="25" height="26" as="geometry" />
        </mxCell>
        <mxCell id="uJvPttrXsnRzV3NXJ3J6-180" value="N" style="text;html=1;align=center;verticalAlign=middle;resizable=0;points=[];autosize=1;strokeColor=none;fillColor=none;" parent="1" vertex="1">
          <mxGeometry x="309" y="544" width="27" height="26" as="geometry" />
        </mxCell>
        <mxCell id="uJvPttrXsnRzV3NXJ3J6-183" style="edgeStyle=orthogonalEdgeStyle;curved=1;rounded=0;orthogonalLoop=1;jettySize=auto;html=1;exitX=0.5;exitY=1;exitDx=0;exitDy=0;entryX=0.5;entryY=0;entryDx=0;entryDy=0;endArrow=none;startFill=0;" parent="1" source="uJvPttrXsnRzV3NXJ3J6-181" target="uJvPttrXsnRzV3NXJ3J6-12" edge="1">
          <mxGeometry relative="1" as="geometry" />
        </mxCell>
        <mxCell id="uJvPttrXsnRzV3NXJ3J6-181" value="Clasificado_como" style="shape=rhombus;perimeter=rhombusPerimeter;whiteSpace=wrap;html=1;align=center;fillColor=#f5f5f5;strokeColor=#666666;fontColor=#333333;" parent="1" vertex="1">
          <mxGeometry x="269" y="634" width="120" height="60" as="geometry" />
        </mxCell>
        <mxCell id="uJvPttrXsnRzV3NXJ3J6-182" style="edgeStyle=orthogonalEdgeStyle;curved=1;rounded=0;orthogonalLoop=1;jettySize=auto;html=1;exitX=0.5;exitY=0;exitDx=0;exitDy=0;entryX=0.466;entryY=0.999;entryDx=0;entryDy=0;entryPerimeter=0;endArrow=none;startFill=0;" parent="1" source="uJvPttrXsnRzV3NXJ3J6-181" target="uJvPttrXsnRzV3NXJ3J6-11" edge="1">
          <mxGeometry relative="1" as="geometry" />
        </mxCell>
        <mxCell id="uJvPttrXsnRzV3NXJ3J6-184" value="M" style="text;html=1;align=center;verticalAlign=middle;resizable=0;points=[];autosize=1;strokeColor=none;fillColor=none;" parent="1" vertex="1">
          <mxGeometry x="306.5" y="601" width="28" height="26" as="geometry" />
        </mxCell>
        <mxCell id="uJvPttrXsnRzV3NXJ3J6-185" value="N" style="text;html=1;align=center;verticalAlign=middle;resizable=0;points=[];autosize=1;strokeColor=none;fillColor=none;" parent="1" vertex="1">
          <mxGeometry x="308" y="708" width="27" height="26" as="geometry" />
        </mxCell>
        <mxCell id="uJvPttrXsnRzV3NXJ3J6-187" style="edgeStyle=orthogonalEdgeStyle;curved=0;rounded=0;orthogonalLoop=1;jettySize=auto;html=1;exitX=1;exitY=0.5;exitDx=0;exitDy=0;entryX=0;entryY=0.25;entryDx=0;entryDy=0;endArrow=none;startFill=0;" parent="1" source="uJvPttrXsnRzV3NXJ3J6-186" target="uJvPttrXsnRzV3NXJ3J6-2" edge="1">
          <mxGeometry relative="1" as="geometry" />
        </mxCell>
        <mxCell id="uJvPttrXsnRzV3NXJ3J6-186" value="&lt;table&gt;&lt;tbody&gt;&lt;tr&gt;&lt;td data-end=&quot;1816&quot; data-start=&quot;1785&quot; class=&quot;max-w-[calc(var(--thread-content-max-width)*2/3)]&quot;&gt;Asociado_a_asignatura&lt;/td&gt;&lt;/tr&gt;&lt;/tbody&gt;&lt;/table&gt;&lt;table&gt;&lt;tbody&gt;&lt;tr&gt;&lt;td data-end=&quot;1842&quot; data-start=&quot;1816&quot; class=&quot;max-w-[calc(var(--thread-content-max-width)*2/3)]&quot;&gt;&lt;/td&gt;&lt;/tr&gt;&lt;/tbody&gt;&lt;/table&gt;" style="shape=rhombus;perimeter=rhombusPerimeter;whiteSpace=wrap;html=1;align=center;fillColor=#f5f5f5;strokeColor=#666666;fontColor=#333333;" parent="1" vertex="1">
          <mxGeometry x="164" y="284" width="145" height="77" as="geometry" />
        </mxCell>
        <mxCell id="uJvPttrXsnRzV3NXJ3J6-189" value="N" style="text;html=1;align=center;verticalAlign=middle;resizable=0;points=[];autosize=1;strokeColor=none;fillColor=none;" parent="1" vertex="1">
          <mxGeometry x="347" y="380" width="27" height="26" as="geometry" />
        </mxCell>
        <mxCell id="uJvPttrXsnRzV3NXJ3J6-190" value="M" style="text;html=1;align=center;verticalAlign=middle;resizable=0;points=[];autosize=1;strokeColor=none;fillColor=none;" parent="1" vertex="1">
          <mxGeometry x="115.5" y="273" width="28" height="26" as="geometry" />
        </mxCell>
        <mxCell id="uJvPttrXsnRzV3NXJ3J6-192" style="edgeStyle=orthogonalEdgeStyle;curved=0;rounded=0;orthogonalLoop=1;jettySize=auto;html=1;exitX=0.5;exitY=1;exitDx=0;exitDy=0;endArrow=none;startFill=0;" parent="1" source="uJvPttrXsnRzV3NXJ3J6-191" target="uJvPttrXsnRzV3NXJ3J6-9" edge="1">
          <mxGeometry relative="1" as="geometry" />
        </mxCell>
        <mxCell id="uJvPttrXsnRzV3NXJ3J6-191" value="Pertenece_a_programa" style="shape=rhombus;perimeter=rhombusPerimeter;whiteSpace=wrap;html=1;align=center;fillColor=#f5f5f5;strokeColor=#666666;fontColor=#333333;" parent="1" vertex="1">
          <mxGeometry x="56" y="137" width="162" height="60" as="geometry" />
        </mxCell>
        <mxCell id="uJvPttrXsnRzV3NXJ3J6-193" style="edgeStyle=orthogonalEdgeStyle;curved=0;rounded=0;orthogonalLoop=1;jettySize=auto;html=1;exitX=0.5;exitY=0;exitDx=0;exitDy=0;entryX=0.473;entryY=0.981;entryDx=0;entryDy=0;entryPerimeter=0;endArrow=none;startFill=0;" parent="1" source="uJvPttrXsnRzV3NXJ3J6-191" target="uJvPttrXsnRzV3NXJ3J6-6" edge="1">
          <mxGeometry relative="1" as="geometry" />
        </mxCell>
        <mxCell id="uJvPttrXsnRzV3NXJ3J6-194" value="N" style="text;html=1;align=center;verticalAlign=middle;resizable=0;points=[];autosize=1;strokeColor=none;fillColor=none;" parent="1" vertex="1">
          <mxGeometry x="112.5" y="215" width="27" height="26" as="geometry" />
        </mxCell>
        <mxCell id="uJvPttrXsnRzV3NXJ3J6-195" value="M" style="text;html=1;align=center;verticalAlign=middle;resizable=0;points=[];autosize=1;strokeColor=none;fillColor=none;" parent="1" vertex="1">
          <mxGeometry x="111" y="86" width="28" height="26" as="geometry" />
        </mxCell>
        <mxCell id="uJvPttrXsnRzV3NXJ3J6-199" style="edgeStyle=orthogonalEdgeStyle;rounded=0;orthogonalLoop=1;jettySize=auto;html=1;exitX=0.5;exitY=0;exitDx=0;exitDy=0;endArrow=none;startFill=0;" parent="1" source="uJvPttrXsnRzV3NXJ3J6-196" edge="1">
          <mxGeometry relative="1" as="geometry">
            <mxPoint x="482" y="446" as="targetPoint" />
            <Array as="points">
              <mxPoint x="483" y="446" />
            </Array>
          </mxGeometry>
        </mxCell>
        <mxCell id="sdon1cMUyLi2lSEhJWea-3" style="edgeStyle=orthogonalEdgeStyle;rounded=0;orthogonalLoop=1;jettySize=auto;html=1;exitX=0.5;exitY=1;exitDx=0;exitDy=0;endArrow=none;startFill=0;" edge="1" parent="1" source="uJvPttrXsnRzV3NXJ3J6-196" target="uJvPttrXsnRzV3NXJ3J6-7">
          <mxGeometry relative="1" as="geometry" />
        </mxCell>
        <mxCell id="uJvPttrXsnRzV3NXJ3J6-196" value="Participa_en" style="shape=rhombus;perimeter=rhombusPerimeter;whiteSpace=wrap;html=1;align=center;fillColor=#f5f5f5;strokeColor=#666666;fontColor=#333333;" parent="1" vertex="1">
          <mxGeometry x="423" y="559" width="120" height="60" as="geometry" />
        </mxCell>
        <mxCell id="uJvPttrXsnRzV3NXJ3J6-200" value="1" style="text;html=1;align=center;verticalAlign=middle;resizable=0;points=[];autosize=1;strokeColor=none;fillColor=none;" parent="1" vertex="1">
          <mxGeometry x="462" y="442" width="25" height="26" as="geometry" />
        </mxCell>
        <mxCell id="uJvPttrXsnRzV3NXJ3J6-201" value="N" style="text;html=1;align=center;verticalAlign=middle;resizable=0;points=[];autosize=1;strokeColor=none;fillColor=none;" parent="1" vertex="1">
          <mxGeometry x="456" y="623" width="27" height="26" as="geometry" />
        </mxCell>
        <mxCell id="uJvPttrXsnRzV3NXJ3J6-203" style="edgeStyle=orthogonalEdgeStyle;rounded=0;orthogonalLoop=1;jettySize=auto;html=1;exitX=0.5;exitY=1;exitDx=0;exitDy=0;entryX=0.5;entryY=0;entryDx=0;entryDy=0;endArrow=none;startFill=0;" parent="1" source="uJvPttrXsnRzV3NXJ3J6-202" target="uJvPttrXsnRzV3NXJ3J6-8" edge="1">
          <mxGeometry relative="1" as="geometry" />
        </mxCell>
        <mxCell id="uJvPttrXsnRzV3NXJ3J6-202" value="Asignado_a" style="shape=rhombus;perimeter=rhombusPerimeter;whiteSpace=wrap;html=1;align=center;fillColor=#f5f5f5;strokeColor=#666666;fontColor=#333333;" parent="1" vertex="1">
          <mxGeometry x="563" y="559" width="120" height="60" as="geometry" />
        </mxCell>
        <mxCell id="uJvPttrXsnRzV3NXJ3J6-205" value="N" style="text;html=1;align=center;verticalAlign=middle;resizable=0;points=[];autosize=1;strokeColor=none;fillColor=none;" parent="1" vertex="1">
          <mxGeometry x="599" y="626" width="27" height="26" as="geometry" />
        </mxCell>
        <mxCell id="uJvPttrXsnRzV3NXJ3J6-206" value="M" style="text;html=1;align=center;verticalAlign=middle;resizable=0;points=[];autosize=1;strokeColor=none;fillColor=none;" parent="1" vertex="1">
          <mxGeometry x="599" y="498" width="28" height="26" as="geometry" />
        </mxCell>
        <mxCell id="uJvPttrXsnRzV3NXJ3J6-210" style="edgeStyle=orthogonalEdgeStyle;rounded=0;orthogonalLoop=1;jettySize=auto;html=1;exitX=0.5;exitY=0;exitDx=0;exitDy=0;entryX=0.5;entryY=1;entryDx=0;entryDy=0;endArrow=none;startFill=0;" parent="1" source="uJvPttrXsnRzV3NXJ3J6-207" target="uJvPttrXsnRzV3NXJ3J6-7" edge="1">
          <mxGeometry relative="1" as="geometry" />
        </mxCell>
        <mxCell id="uJvPttrXsnRzV3NXJ3J6-207" value="Usuario_estudiante" style="shape=rhombus;perimeter=rhombusPerimeter;whiteSpace=wrap;html=1;align=center;fillColor=#f5f5f5;strokeColor=#666666;fontColor=#333333;" parent="1" vertex="1">
          <mxGeometry x="423" y="720" width="120" height="60" as="geometry" />
        </mxCell>
        <mxCell id="uJvPttrXsnRzV3NXJ3J6-211" style="edgeStyle=orthogonalEdgeStyle;rounded=0;orthogonalLoop=1;jettySize=auto;html=1;exitX=0.5;exitY=0;exitDx=0;exitDy=0;entryX=0.5;entryY=1;entryDx=0;entryDy=0;endArrow=none;startFill=0;" parent="1" source="uJvPttrXsnRzV3NXJ3J6-208" target="uJvPttrXsnRzV3NXJ3J6-8" edge="1">
          <mxGeometry relative="1" as="geometry" />
        </mxCell>
        <mxCell id="uJvPttrXsnRzV3NXJ3J6-208" value="Usuario_docente" style="shape=rhombus;perimeter=rhombusPerimeter;whiteSpace=wrap;html=1;align=center;fillColor=#f5f5f5;strokeColor=#666666;fontColor=#333333;" parent="1" vertex="1">
          <mxGeometry x="563" y="720" width="120" height="60" as="geometry" />
        </mxCell>
        <mxCell id="uJvPttrXsnRzV3NXJ3J6-212" style="edgeStyle=orthogonalEdgeStyle;rounded=0;orthogonalLoop=1;jettySize=auto;html=1;exitX=0.5;exitY=1;exitDx=0;exitDy=0;entryX=0.098;entryY=0.017;entryDx=0;entryDy=0;entryPerimeter=0;endArrow=none;startFill=0;" parent="1" source="uJvPttrXsnRzV3NXJ3J6-207" target="uJvPttrXsnRzV3NXJ3J6-4" edge="1">
          <mxGeometry relative="1" as="geometry" />
        </mxCell>
        <mxCell id="uJvPttrXsnRzV3NXJ3J6-213" style="edgeStyle=orthogonalEdgeStyle;rounded=0;orthogonalLoop=1;jettySize=auto;html=1;exitX=0.5;exitY=1;exitDx=0;exitDy=0;entryX=0.85;entryY=0.013;entryDx=0;entryDy=0;entryPerimeter=0;endArrow=none;startFill=0;" parent="1" source="uJvPttrXsnRzV3NXJ3J6-208" target="uJvPttrXsnRzV3NXJ3J6-4" edge="1">
          <mxGeometry relative="1" as="geometry" />
        </mxCell>
        <mxCell id="uJvPttrXsnRzV3NXJ3J6-214" value="1" style="text;html=1;align=center;verticalAlign=middle;resizable=0;points=[];autosize=1;strokeColor=none;fillColor=none;" parent="1" vertex="1">
          <mxGeometry x="506" y="794" width="25" height="26" as="geometry" />
        </mxCell>
        <mxCell id="uJvPttrXsnRzV3NXJ3J6-215" value="1" style="text;html=1;align=center;verticalAlign=middle;resizable=0;points=[];autosize=1;strokeColor=none;fillColor=none;" parent="1" vertex="1">
          <mxGeometry x="564" y="794" width="25" height="26" as="geometry" />
        </mxCell>
        <mxCell id="uJvPttrXsnRzV3NXJ3J6-216" value="1" style="text;html=1;align=center;verticalAlign=middle;resizable=0;points=[];autosize=1;strokeColor=none;fillColor=none;" parent="1" vertex="1">
          <mxGeometry x="601" y="686" width="25" height="26" as="geometry" />
        </mxCell>
        <mxCell id="uJvPttrXsnRzV3NXJ3J6-217" value="1" style="text;html=1;align=center;verticalAlign=middle;resizable=0;points=[];autosize=1;strokeColor=none;fillColor=none;" parent="1" vertex="1">
          <mxGeometry x="462" y="687" width="25" height="26" as="geometry" />
        </mxCell>
        <mxCell id="uJvPttrXsnRzV3NXJ3J6-219" style="edgeStyle=orthogonalEdgeStyle;rounded=0;orthogonalLoop=1;jettySize=auto;html=1;exitX=1;exitY=0.5;exitDx=0;exitDy=0;entryX=0;entryY=0.5;entryDx=0;entryDy=0;endArrow=none;startFill=0;" parent="1" source="uJvPttrXsnRzV3NXJ3J6-218" target="uJvPttrXsnRzV3NXJ3J6-4" edge="1">
          <mxGeometry relative="1" as="geometry" />
        </mxCell>
        <mxCell id="uJvPttrXsnRzV3NXJ3J6-220" style="edgeStyle=orthogonalEdgeStyle;rounded=0;orthogonalLoop=1;jettySize=auto;html=1;exitX=0;exitY=0.5;exitDx=0;exitDy=0;entryX=1;entryY=0.5;entryDx=0;entryDy=0;endArrow=none;startFill=0;" parent="1" source="uJvPttrXsnRzV3NXJ3J6-218" target="uJvPttrXsnRzV3NXJ3J6-3" edge="1">
          <mxGeometry relative="1" as="geometry" />
        </mxCell>
        <mxCell id="uJvPttrXsnRzV3NXJ3J6-218" value="Tiene_rol" style="shape=rhombus;perimeter=rhombusPerimeter;whiteSpace=wrap;html=1;align=center;fillColor=#f5f5f5;strokeColor=#666666;fontColor=#333333;" parent="1" vertex="1">
          <mxGeometry x="331" y="808" width="120" height="60" as="geometry" />
        </mxCell>
        <mxCell id="uJvPttrXsnRzV3NXJ3J6-221" value="N" style="text;html=1;align=center;verticalAlign=middle;resizable=0;points=[];autosize=1;strokeColor=none;fillColor=none;" parent="1" vertex="1">
          <mxGeometry x="294.5" y="836" width="27" height="26" as="geometry" />
        </mxCell>
        <mxCell id="uJvPttrXsnRzV3NXJ3J6-222" value="M" style="text;html=1;align=center;verticalAlign=middle;resizable=0;points=[];autosize=1;strokeColor=none;fillColor=none;" parent="1" vertex="1">
          <mxGeometry x="476" y="834" width="28" height="26" as="geometry" />
        </mxCell>
        <mxCell id="uJvPttrXsnRzV3NXJ3J6-224" style="edgeStyle=orthogonalEdgeStyle;rounded=0;orthogonalLoop=1;jettySize=auto;html=1;exitX=0.5;exitY=0;exitDx=0;exitDy=0;entryX=0.5;entryY=1;entryDx=0;entryDy=0;endArrow=none;startFill=0;" parent="1" source="uJvPttrXsnRzV3NXJ3J6-223" target="uJvPttrXsnRzV3NXJ3J6-3" edge="1">
          <mxGeometry relative="1" as="geometry" />
        </mxCell>
        <mxCell id="uJvPttrXsnRzV3NXJ3J6-223" value="Relationship" style="shape=rhombus;perimeter=rhombusPerimeter;whiteSpace=wrap;html=1;align=center;fillColor=#f5f5f5;strokeColor=#666666;fontColor=#333333;" parent="1" vertex="1">
          <mxGeometry x="187" y="903" width="120" height="60" as="geometry" />
        </mxCell>
        <mxCell id="uJvPttrXsnRzV3NXJ3J6-226" style="edgeStyle=orthogonalEdgeStyle;rounded=0;orthogonalLoop=1;jettySize=auto;html=1;exitX=0.5;exitY=1;exitDx=0;exitDy=0;entryX=0.523;entryY=-0.01;entryDx=0;entryDy=0;entryPerimeter=0;endArrow=none;startFill=0;" parent="1" source="uJvPttrXsnRzV3NXJ3J6-223" target="uJvPttrXsnRzV3NXJ3J6-5" edge="1">
          <mxGeometry relative="1" as="geometry" />
        </mxCell>
        <mxCell id="uJvPttrXsnRzV3NXJ3J6-227" value="M" style="text;html=1;align=center;verticalAlign=middle;resizable=0;points=[];autosize=1;strokeColor=none;fillColor=none;" parent="1" vertex="1">
          <mxGeometry x="222.5" y="856" width="28" height="26" as="geometry" />
        </mxCell>
        <mxCell id="uJvPttrXsnRzV3NXJ3J6-228" value="N" style="text;html=1;align=center;verticalAlign=middle;resizable=0;points=[];autosize=1;strokeColor=none;fillColor=none;" parent="1" vertex="1">
          <mxGeometry x="222.5" y="993" width="27" height="26" as="geometry" />
        </mxCell>
        <mxCell id="uJvPttrXsnRzV3NXJ3J6-231" style="edgeStyle=orthogonalEdgeStyle;rounded=0;orthogonalLoop=1;jettySize=auto;html=1;exitX=0.5;exitY=0;exitDx=0;exitDy=0;entryX=0.5;entryY=1;entryDx=0;entryDy=0;endArrow=none;startFill=0;" parent="1" source="uJvPttrXsnRzV3NXJ3J6-229" target="uJvPttrXsnRzV3NXJ3J6-4" edge="1">
          <mxGeometry relative="1" as="geometry" />
        </mxCell>
        <mxCell id="uJvPttrXsnRzV3NXJ3J6-229" value="Usuario_invitado" style="shape=rhombus;perimeter=rhombusPerimeter;whiteSpace=wrap;html=1;align=center;fillColor=#f5f5f5;strokeColor=#666666;fontColor=#333333;" parent="1" vertex="1">
          <mxGeometry x="490.5" y="884" width="120" height="60" as="geometry" />
        </mxCell>
        <mxCell id="uJvPttrXsnRzV3NXJ3J6-230" style="edgeStyle=orthogonalEdgeStyle;rounded=0;orthogonalLoop=1;jettySize=auto;html=1;exitX=0.5;exitY=1;exitDx=0;exitDy=0;entryX=0.776;entryY=0.9;entryDx=0;entryDy=0;entryPerimeter=0;endArrow=none;startFill=0;" parent="1" source="uJvPttrXsnRzV3NXJ3J6-229" target="uJvPttrXsnRzV3NXJ3J6-233" edge="1">
          <mxGeometry relative="1" as="geometry" />
        </mxCell>
        <mxCell id="uJvPttrXsnRzV3NXJ3J6-232" value="1" style="text;html=1;align=center;verticalAlign=middle;resizable=0;points=[];autosize=1;strokeColor=none;fillColor=none;" parent="1" vertex="1">
          <mxGeometry x="531" y="854" width="25" height="26" as="geometry" />
        </mxCell>
        <mxCell id="uJvPttrXsnRzV3NXJ3J6-233" value="1" style="text;html=1;align=center;verticalAlign=middle;resizable=0;points=[];autosize=1;strokeColor=none;fillColor=none;" parent="1" vertex="1">
          <mxGeometry x="530.5" y="958" width="25" height="26" as="geometry" />
        </mxCell>
        <mxCell id="sdon1cMUyLi2lSEhJWea-4" style="edgeStyle=orthogonalEdgeStyle;rounded=0;orthogonalLoop=1;jettySize=auto;html=1;exitX=0.5;exitY=0;exitDx=0;exitDy=0;entryX=0.896;entryY=1.003;entryDx=0;entryDy=0;entryPerimeter=0;endArrow=none;startFill=0;" edge="1" parent="1" source="uJvPttrXsnRzV3NXJ3J6-202" target="uJvPttrXsnRzV3NXJ3J6-2">
          <mxGeometry relative="1" as="geometry" />
        </mxCell>
      </root>
    </mxGraphModel>
  </diagram>
</mxfile>
